<svg xmlns="http://www.w3.org/2000/svg" viewBox="0 0 41.78 62.8">
  <defs>
    <style>
      .cls-1 {
        fill: #b0a45b;
      }

      .cls-2 {
        fill: #dacb78;
      }

      .cls-3 {
        fill: #ffd000;
        fill-rule: evenodd;
      }
    </style>
  </defs>
  <g id="Layer_2" data-name="Layer 2">
    <g id="Layer_2-2" data-name="Layer 2">
      <path class="cls-1" d="M22.12,39.64,41.78,12.2s0,16.57-4.49,20.2C33.21,35.74,22.12,39.64,22.12,39.64Z"/>
      <path class="cls-1" d="M19.65,39.64,0,12.2S0,28.77,4.48,32.4C8.57,35.74,19.65,39.64,19.65,39.64Z"/>
      <path class="cls-1" d="M22.12,62.8,41.78,35.36s0,16.57-4.49,20.2C33.21,58.91,22.12,62.8,22.12,62.8Z"/>
      <path class="cls-1" d="M19.65,62.8,0,35.37s0,16.57,4.48,20.2C8.57,58.91,19.65,62.8,19.65,62.8Z"/>
      <path class="cls-2" d="M22.12,39.64s.21-16.65,4.25-20c4.35-3.55,15.41-7.49,15.41-7.49Z"/>
      <path class="cls-2" d="M19.65,39.64s-.2-16.65-4.24-20C11.06,16.09,0,12.15,0,12.15Z"/>
      <path class="cls-2" d="M22.12,62.8s.21-16.65,4.25-19.95c4.35-3.55,15.41-7.49,15.41-7.49Z"/>
      <path class="cls-2" d="M19.65,62.8s-.2-16.65-4.24-19.95C11.06,39.3,0,35.36,0,35.36Z"/>
      <path class="cls-3" d="M21,21.05a6.17,6.17,0,0,0-1.78-2.76C15.12,15.2,6.29,12,6.29,12a15,15,0,0,1,29.38,0s-8.88,3.22-12.94,6.31A6.13,6.13,0,0,0,21,21.05Z"/>
    </g>
  </g>
</svg>
